<?xml version="1.0" encoding="UTF-8" standalone="no"?>
<!DOCTYPE svg PUBLIC "-//W3C//DTD SVG 1.1//EN"
 "http://www.w3.org/Graphics/SVG/1.1/DTD/svg11.dtd">
<!-- Generated by graphviz version 2.42.4 (0)
 -->
<!-- Title: cluster0speed_sort Pages: 1 -->
<svg width="2658pt" height="791pt"
 viewBox="0.00 0.00 2658.00 791.00" xmlns="http://www.w3.org/2000/svg" xmlns:xlink="http://www.w3.org/1999/xlink">
<g id="graph0" class="graph" transform="scale(1 1) rotate(0) translate(4 787)">
<title>cluster0speed_sort</title>
<polygon fill="white" stroke="transparent" points="-4,4 -4,-787 2654,-787 2654,4 -4,4"/>
<text text-anchor="middle" x="1325" y="-7.8" font-family="DejaVu Sans Mono" font-size="14.00">speed_sort</text>
<g id="clust1" class="cluster">
<title>cluster0Sort</title>
<polygon fill="none" stroke="black" points="142,-31 142,-775 2253,-775 2253,-31 142,-31"/>
<text text-anchor="middle" x="1197.5" y="-759.8" font-family="DejaVu Sans Mono" font-size="14.00">Sort</text>
</g>
<g id="clust2" class="cluster">
<title>cluster0merge</title>
<polygon fill="none" stroke="black" points="1544,-39 1544,-744 2245,-744 2245,-39 1544,-39"/>
<text text-anchor="middle" x="1894.5" y="-728.8" font-family="DejaVu Sans Mono" font-size="14.00">merge</text>
</g>
<g id="clust3" class="cluster">
<title>cluster_5</title>
<polygon fill="purple" stroke="purple" points="1677,-562 1677,-614 1819,-614 1819,-562 1677,-562"/>
</g>
<g id="clust4" class="cluster">
<title>cluster_8</title>
<polygon fill="purple" stroke="purple" points="1646,-479 1646,-531 1720,-531 1720,-479 1646,-479"/>
</g>
<g id="clust5" class="cluster">
<title>cluster_10</title>
<polygon fill="purple" stroke="purple" points="1552,-395.5 1552,-447.5 1694,-447.5 1694,-395.5 1552,-395.5"/>
</g>
<g id="clust6" class="cluster">
<title>cluster_14</title>
<polygon fill="purple" stroke="purple" points="1552,-304 1552,-356 1622,-356 1622,-304 1552,-304"/>
</g>
<g id="clust7" class="cluster">
<title>cluster_16</title>
<polygon fill="purple" stroke="purple" points="1552,-221 1552,-273 1668,-273 1668,-221 1552,-221"/>
</g>
<g id="clust8" class="cluster">
<title>cluster_18</title>
<polygon fill="purple" stroke="purple" points="1676,-221 1676,-273 1746,-273 1746,-221 1676,-221"/>
</g>
<g id="clust9" class="cluster">
<title>cluster_20</title>
<polygon fill="purple" stroke="purple" points="1773,-138 1773,-190 1889,-190 1889,-138 1773,-138"/>
</g>
<g id="clust10" class="cluster">
<title>cluster_23</title>
<polygon fill="purple" stroke="purple" points="1929,-47 1929,-99 2045,-99 2045,-47 1929,-47"/>
</g>
<g id="clust11" class="cluster">
<title>cluster_25</title>
<polygon fill="purple" stroke="purple" points="2100,-47 2100,-99 2216,-99 2216,-47 2100,-47"/>
</g>
<g id="clust12" class="cluster">
<title>cluster0merge_sort</title>
<polygon fill="none" stroke="black" points="1098,-130 1098,-736.5 1536,-736.5 1536,-130 1098,-130"/>
<text text-anchor="middle" x="1317" y="-721.3" font-family="DejaVu Sans Mono" font-size="14.00">merge_sort</text>
</g>
<g id="clust13" class="cluster">
<title>cluster_33</title>
<polygon fill="purple" stroke="purple" points="1106,-562 1106,-614 1176,-614 1176,-562 1106,-562"/>
</g>
<g id="clust14" class="cluster">
<title>cluster_35</title>
<polygon fill="purple" stroke="purple" points="1106,-479 1106,-531 1176,-531 1176,-479 1106,-479"/>
</g>
<g id="clust15" class="cluster">
<title>cluster_37</title>
<polygon fill="purple" stroke="purple" points="1358,-395.5 1358,-447.5 1514,-447.5 1514,-395.5 1358,-395.5"/>
</g>
<g id="clust16" class="cluster">
<title>cluster_38</title>
<polygon fill="purple" stroke="purple" points="1106,-304 1106,-356 1176,-356 1176,-304 1106,-304"/>
</g>
<g id="clust17" class="cluster">
<title>cluster_41</title>
<polygon fill="purple" stroke="purple" points="1351,-221 1351,-273 1507,-273 1507,-221 1351,-221"/>
</g>
<g id="clust18" class="cluster">
<title>cluster_42</title>
<polygon fill="purple" stroke="purple" points="1113,-138 1113,-190 1229,-190 1229,-138 1113,-138"/>
</g>
<g id="clust19" class="cluster">
<title>cluster0insertion_sort</title>
<polygon fill="none" stroke="black" points="448,-387 448,-728 1090,-728 1090,-387 448,-387"/>
<text text-anchor="middle" x="769" y="-712.8" font-family="DejaVu Sans Mono" font-size="14.00">insertion_sort</text>
</g>
<g id="clust20" class="cluster">
<title>cluster_50</title>
<polygon fill="purple" stroke="purple" points="456,-395.5 456,-531 530,-531 530,-395.5 456,-395.5"/>
</g>
<g id="clust21" class="cluster">
<title>cluster_KEY</title>
<polygon fill="none" stroke="black" points="2261,-479 2261,-728 2642,-728 2642,-479 2261,-479"/>
<text text-anchor="middle" x="2451.5" y="-712.8" font-family="DejaVu Sans Mono" font-size="14.00">KEY</text>
</g>
<!-- 1 -->
<g id="node1" class="node">
<title>1</title>
<polygon fill="#fffb81" stroke="black" points="132,-697 0,-697 0,-661 132,-661 132,-697"/>
<text text-anchor="start" x="8" y="-675.3" font-family="DejaVu Sans Mono" font-size="14.00">class Sort:...</text>
</g>
<!-- 3 -->
<g id="node2" class="node">
<title>3</title>
<polygon fill="#fffb81" stroke="black" points="439.5,-705.5 150.5,-705.5 150.5,-652.5 439.5,-652.5 439.5,-705.5"/>
<text text-anchor="start" x="158.5" y="-690.3" font-family="DejaVu Sans Mono" font-size="14.00">def merge(self, l, r):...</text>
<text text-anchor="start" x="158.5" y="-675.3" font-family="DejaVu Sans Mono" font-size="14.00">def merge_sort(self, src):...</text>
<text text-anchor="start" x="158.5" y="-660.3" font-family="DejaVu Sans Mono" font-size="14.00">def insertion_sort(self, src):...</text>
</g>
<!-- 5 -->
<g id="node3" class="node">
<title>5</title>
<polygon fill="#fffb81" stroke="black" points="1883,-713 1685,-713 1685,-645 1883,-645 1883,-713"/>
<text text-anchor="start" x="1693" y="-697.8" font-family="DejaVu Sans Mono" font-size="14.00">i = 0</text>
<text text-anchor="start" x="1693" y="-682.8" font-family="DejaVu Sans Mono" font-size="14.00">j = 0</text>
<text text-anchor="start" x="1693" y="-667.8" font-family="DejaVu Sans Mono" font-size="14.00">arr = []</text>
<text text-anchor="start" x="1693" y="-652.8" font-family="DejaVu Sans Mono" font-size="14.00">size = len(l) + len(r)</text>
</g>
<!-- 6 -->
<g id="node4" class="node">
<title>6</title>
<polygon fill="#e552ff" stroke="#e552ff" points="1739,-606 1697,-606 1697,-610 1685,-610 1685,-570 1739,-570 1739,-606"/>
<polyline fill="none" stroke="#e552ff" points="1685,-606 1697,-606 "/>
<text text-anchor="middle" x="1712" y="-584.3" font-family="DejaVu Sans Mono" font-size="14.00">len</text>
</g>
<!-- 5&#45;&gt;6 -->
<g id="edge1" class="edge">
<title>5&#45;&gt;6</title>
<path fill="none" stroke="black" stroke-dasharray="5,2" d="M1744.86,-644.93C1742.44,-642.34 1740.12,-639.68 1738,-637 1732.79,-630.42 1728.07,-622.64 1724.13,-615.29"/>
<polygon fill="black" stroke="black" points="1727.22,-613.65 1719.57,-606.32 1720.98,-616.82 1727.22,-613.65"/>
<text text-anchor="middle" x="1759" y="-625.8" font-family="DejaVu Sans Mono" font-size="14.00">calls</text>
</g>
<!-- 7 -->
<g id="node5" class="node">
<title>7</title>
<polygon fill="#e552ff" stroke="#e552ff" points="1811,-606 1769,-606 1769,-610 1757,-610 1757,-570 1811,-570 1811,-606"/>
<polyline fill="none" stroke="#e552ff" points="1757,-606 1769,-606 "/>
<text text-anchor="middle" x="1784" y="-584.3" font-family="DejaVu Sans Mono" font-size="14.00">len</text>
</g>
<!-- 5&#45;&gt;7 -->
<g id="edge2" class="edge">
<title>5&#45;&gt;7</title>
<path fill="none" stroke="black" stroke-dasharray="5,2" d="M1784,-644.86C1784,-635.58 1784,-625.6 1784,-616.68"/>
<polygon fill="black" stroke="black" points="1787.5,-616.44 1784,-606.44 1780.5,-616.44 1787.5,-616.44"/>
<text text-anchor="middle" x="1805" y="-625.8" font-family="DejaVu Sans Mono" font-size="14.00">calls</text>
</g>
<!-- 8 -->
<g id="node6" class="node">
<title>8</title>
<polygon fill="#ffbe52" stroke="black" points="2151.21,-588 2070.61,-606 1909.39,-606 1828.79,-588 1909.39,-570 2070.61,-570 2151.21,-588"/>
<text text-anchor="start" x="1873.87" y="-584.3" font-family="DejaVu Sans Mono" font-size="14.00">for k in range(0, size):</text>
</g>
<!-- 5&#45;&gt;8 -->
<g id="edge25" class="edge">
<title>5&#45;&gt;8</title>
<path fill="none" stroke="black" d="M1860.41,-644.99C1887.4,-633.33 1917.01,-620.54 1941.1,-610.13"/>
<polygon fill="black" stroke="black" points="1942.59,-613.3 1950.38,-606.12 1939.81,-606.87 1942.59,-613.3"/>
</g>
<!-- 9 -->
<g id="node7" class="node">
<title>9</title>
<polygon fill="#e552ff" stroke="#e552ff" points="1712,-523 1666,-523 1666,-527 1654,-527 1654,-487 1712,-487 1712,-523"/>
<polyline fill="none" stroke="#e552ff" points="1654,-523 1666,-523 "/>
<text text-anchor="middle" x="1683" y="-501.3" font-family="DejaVu Sans Mono" font-size="14.00">range</text>
</g>
<!-- 8&#45;&gt;9 -->
<g id="edge3" class="edge">
<title>8&#45;&gt;9</title>
<path fill="none" stroke="black" stroke-dasharray="5,2" d="M1895.07,-573.08C1828.83,-562.33 1746.96,-546.7 1716,-531 1714.64,-530.31 1713.27,-529.56 1711.92,-528.77"/>
<polygon fill="black" stroke="black" points="1713.48,-525.61 1703.2,-523.07 1709.65,-531.47 1713.48,-525.61"/>
<text text-anchor="middle" x="1813" y="-542.8" font-family="DejaVu Sans Mono" font-size="14.00">calls</text>
</g>
<!-- 10 -->
<g id="node8" class="node">
<title>10</title>
<polygon fill="#fffb81" stroke="black" points="1936,-524 1730,-524 1730,-486 1936,-486 1936,-524"/>
<text text-anchor="start" x="1738" y="-508.8" font-family="DejaVu Sans Mono" font-size="14.00">lSentinel = i == len(l)</text>
<text text-anchor="start" x="1738" y="-493.8" font-family="DejaVu Sans Mono" font-size="14.00">rSentinel = j == len(r)</text>
</g>
<!-- 8&#45;&gt;10 -->
<g id="edge23" class="edge">
<title>8&#45;&gt;10</title>
<path fill="none" stroke="green" d="M1897.72,-572.56C1876.17,-567.61 1857.13,-561.41 1849,-554 1843.29,-548.79 1839.61,-541.49 1837.25,-534.15"/>
<polygon fill="green" stroke="green" points="1840.61,-533.16 1834.77,-524.32 1833.82,-534.87 1840.61,-533.16"/>
<text text-anchor="middle" x="1907" y="-542.8" font-family="DejaVu Sans Mono" font-size="14.00">range(0, size)</text>
</g>
<!-- 11 -->
<g id="node24" class="node">
<title>11</title>
<polygon fill="#98fb98" stroke="black" points="2237.18,-523 2087.36,-523 2048.82,-487 2198.64,-487 2237.18,-523"/>
<text text-anchor="start" x="2081" y="-501.3" font-family="DejaVu Sans Mono" font-size="14.00">return arr</text>
</g>
<!-- 8&#45;&gt;11 -->
<g id="edge24" class="edge">
<title>8&#45;&gt;11</title>
<path fill="none" stroke="green" d="M2022.45,-569.82C2045.65,-557.54 2077.05,-540.91 2101.99,-527.71"/>
<polygon fill="green" stroke="green" points="2103.66,-530.79 2110.86,-523.01 2100.39,-524.6 2103.66,-530.79"/>
</g>
<!-- 12 -->
<g id="node9" class="node">
<title>12</title>
<polygon fill="#e552ff" stroke="#e552ff" points="1614,-439.5 1572,-439.5 1572,-443.5 1560,-443.5 1560,-403.5 1614,-403.5 1614,-439.5"/>
<polyline fill="none" stroke="#e552ff" points="1560,-439.5 1572,-439.5 "/>
<text text-anchor="middle" x="1587" y="-417.8" font-family="DejaVu Sans Mono" font-size="14.00">len</text>
</g>
<!-- 10&#45;&gt;12 -->
<g id="edge4" class="edge">
<title>10&#45;&gt;12</title>
<path fill="none" stroke="black" stroke-dasharray="5,2" d="M1759.04,-485.94C1747.36,-483.4 1735.38,-480.99 1724,-479 1694.89,-473.91 1685.75,-481.16 1658,-471 1642.4,-465.29 1626.94,-455.37 1614.45,-445.99"/>
<polygon fill="black" stroke="black" points="1616.35,-443.03 1606.31,-439.64 1612.04,-448.55 1616.35,-443.03"/>
<text text-anchor="middle" x="1679" y="-459.8" font-family="DejaVu Sans Mono" font-size="14.00">calls</text>
</g>
<!-- 13 -->
<g id="node10" class="node">
<title>13</title>
<polygon fill="#e552ff" stroke="#e552ff" points="1686,-439.5 1644,-439.5 1644,-443.5 1632,-443.5 1632,-403.5 1686,-403.5 1686,-439.5"/>
<polyline fill="none" stroke="#e552ff" points="1632,-439.5 1644,-439.5 "/>
<text text-anchor="middle" x="1659" y="-417.8" font-family="DejaVu Sans Mono" font-size="14.00">len</text>
</g>
<!-- 10&#45;&gt;13 -->
<g id="edge5" class="edge">
<title>10&#45;&gt;13</title>
<path fill="none" stroke="black" stroke-dasharray="5,2" d="M1775.06,-486C1748.26,-476.51 1716.56,-463.59 1690,-448 1688.72,-447.25 1687.44,-446.45 1686.17,-445.61"/>
<polygon fill="black" stroke="black" points="1688.14,-442.71 1677.99,-439.68 1684.03,-448.38 1688.14,-442.71"/>
<text text-anchor="middle" x="1756" y="-459.8" font-family="DejaVu Sans Mono" font-size="14.00">calls</text>
</g>
<!-- 14 -->
<g id="node11" class="node">
<title>14</title>
<polygon fill="#ff6752" stroke="black" points="1833,-439.5 1704.14,-421.5 1833,-403.5 1961.86,-421.5 1833,-439.5"/>
<text text-anchor="start" x="1742.01" y="-417.8" font-family="DejaVu Sans Mono" font-size="14.00">if i == len(l):</text>
</g>
<!-- 10&#45;&gt;14 -->
<g id="edge22" class="edge">
<title>10&#45;&gt;14</title>
<path fill="none" stroke="black" d="M1833,-485.91C1833,-475.36 1833,-461.83 1833,-449.98"/>
<polygon fill="black" stroke="black" points="1836.5,-449.7 1833,-439.7 1829.5,-449.7 1836.5,-449.7"/>
</g>
<!-- 15 -->
<g id="node12" class="node">
<title>15</title>
<polygon fill="#e552ff" stroke="#e552ff" points="1614,-348 1572,-348 1572,-352 1560,-352 1560,-312 1614,-312 1614,-348"/>
<polyline fill="none" stroke="#e552ff" points="1560,-348 1572,-348 "/>
<text text-anchor="middle" x="1587" y="-326.3" font-family="DejaVu Sans Mono" font-size="14.00">len</text>
</g>
<!-- 14&#45;&gt;15 -->
<g id="edge6" class="edge">
<title>14&#45;&gt;15</title>
<path fill="none" stroke="black" stroke-dasharray="5,2" d="M1789.26,-409.51C1735.52,-395.65 1647.82,-371.72 1618,-356 1616.7,-355.31 1615.4,-354.57 1614.12,-353.78"/>
<polygon fill="black" stroke="black" points="1616.09,-350.89 1605.87,-348.1 1612.12,-356.66 1616.09,-350.89"/>
<text text-anchor="middle" x="1699" y="-367.8" font-family="DejaVu Sans Mono" font-size="14.00">calls</text>
</g>
<!-- 16 -->
<g id="node13" class="node">
<title>16</title>
<polygon fill="#fffb81" stroke="black" points="1781.5,-349 1632.5,-349 1632.5,-311 1781.5,-311 1781.5,-349"/>
<text text-anchor="start" x="1640.5" y="-333.8" font-family="DejaVu Sans Mono" font-size="14.00">arr.append(r[j])</text>
<text text-anchor="start" x="1640.5" y="-318.8" font-family="DejaVu Sans Mono" font-size="14.00">j += 1</text>
</g>
<!-- 14&#45;&gt;16 -->
<g id="edge9" class="edge">
<title>14&#45;&gt;16</title>
<path fill="none" stroke="green" d="M1812.76,-406.12C1793.39,-392.36 1763.81,-371.35 1740.85,-355.05"/>
<polygon fill="green" stroke="green" points="1742.59,-351.99 1732.42,-349.05 1738.54,-357.7 1742.59,-351.99"/>
<text text-anchor="middle" x="1818.5" y="-367.8" font-family="DejaVu Sans Mono" font-size="14.00">i == len(l)</text>
</g>
<!-- 18 -->
<g id="node15" class="node">
<title>18</title>
<polygon fill="#ff6752" stroke="black" points="1928,-348 1799.14,-330 1928,-312 2056.86,-330 1928,-348"/>
<text text-anchor="start" x="1837.01" y="-326.3" font-family="DejaVu Sans Mono" font-size="14.00">if j == len(r):</text>
</g>
<!-- 14&#45;&gt;18 -->
<g id="edge21" class="edge">
<title>14&#45;&gt;18</title>
<path fill="none" stroke="red" d="M1849.12,-405.32C1864.36,-390.96 1887.4,-369.25 1904.65,-353"/>
<polygon fill="red" stroke="red" points="1907.24,-355.36 1912.12,-345.96 1902.44,-350.27 1907.24,-355.36"/>
<text text-anchor="middle" x="1945" y="-367.8" font-family="DejaVu Sans Mono" font-size="14.00">(i != len(l))</text>
</g>
<!-- 16&#45;&gt;8 -->
<g id="edge8" class="edge">
<title>16&#45;&gt;8</title>
<path fill="none" stroke="black" d="M1759.66,-349.01C1769.64,-351.8 1780.06,-354.32 1790,-356 1800.2,-357.73 1968.67,-356.7 1976,-364 1983.49,-371.46 1983.96,-543.48 1985,-554 1985.19,-555.95 1985.42,-557.95 1985.67,-559.97"/>
<polygon fill="black" stroke="black" points="1982.21,-560.5 1987.07,-569.91 1989.15,-559.53 1982.21,-560.5"/>
</g>
<!-- 29 -->
<g id="node14" class="node">
<title>29</title>
<polygon fill="#e552ff" stroke="#e552ff" points="1659.5,-265 1572.5,-265 1572.5,-269 1560.5,-269 1560.5,-229 1659.5,-229 1659.5,-265"/>
<polyline fill="none" stroke="#e552ff" points="1560.5,-265 1572.5,-265 "/>
<text text-anchor="middle" x="1610" y="-243.3" font-family="DejaVu Sans Mono" font-size="14.00">arr.append</text>
</g>
<!-- 16&#45;&gt;29 -->
<g id="edge7" class="edge">
<title>16&#45;&gt;29</title>
<path fill="none" stroke="black" stroke-dasharray="5,2" d="M1684.99,-310.62C1671.22,-299.12 1653.34,-284.19 1638.49,-271.79"/>
<polygon fill="black" stroke="black" points="1640.52,-268.92 1630.6,-265.2 1636.03,-274.3 1640.52,-268.92"/>
<text text-anchor="middle" x="1688" y="-284.8" font-family="DejaVu Sans Mono" font-size="14.00">calls</text>
</g>
<!-- 19 -->
<g id="node16" class="node">
<title>19</title>
<polygon fill="#e552ff" stroke="#e552ff" points="1738,-265 1696,-265 1696,-269 1684,-269 1684,-229 1738,-229 1738,-265"/>
<polyline fill="none" stroke="#e552ff" points="1684,-265 1696,-265 "/>
<text text-anchor="middle" x="1711" y="-243.3" font-family="DejaVu Sans Mono" font-size="14.00">len</text>
</g>
<!-- 18&#45;&gt;19 -->
<g id="edge10" class="edge">
<title>18&#45;&gt;19</title>
<path fill="none" stroke="black" stroke-dasharray="5,2" d="M1869.49,-320.16C1830.93,-312.31 1780.62,-298.06 1742,-273 1741.07,-272.4 1740.14,-271.77 1739.2,-271.13"/>
<polygon fill="black" stroke="black" points="1741.02,-268.13 1730.89,-265.03 1736.88,-273.77 1741.02,-268.13"/>
<text text-anchor="middle" x="1805" y="-284.8" font-family="DejaVu Sans Mono" font-size="14.00">calls</text>
</g>
<!-- 20 -->
<g id="node17" class="node">
<title>20</title>
<polygon fill="#fffb81" stroke="black" points="1905.5,-266 1756.5,-266 1756.5,-228 1905.5,-228 1905.5,-266"/>
<text text-anchor="start" x="1764.5" y="-250.8" font-family="DejaVu Sans Mono" font-size="14.00">arr.append(l[i])</text>
<text text-anchor="start" x="1764.5" y="-235.8" font-family="DejaVu Sans Mono" font-size="14.00">i += 1</text>
</g>
<!-- 18&#45;&gt;20 -->
<g id="edge13" class="edge">
<title>18&#45;&gt;20</title>
<path fill="none" stroke="green" d="M1876.7,-318.98C1863.4,-314.09 1850.23,-306.81 1841,-296 1836.32,-290.52 1833.64,-283.42 1832.15,-276.36"/>
<polygon fill="green" stroke="green" points="1835.59,-275.67 1830.73,-266.25 1828.66,-276.64 1835.59,-275.67"/>
<text text-anchor="middle" x="1886.5" y="-284.8" font-family="DejaVu Sans Mono" font-size="14.00">j == len(r)</text>
</g>
<!-- 22 -->
<g id="node19" class="node">
<title>22</title>
<polygon fill="#ff6752" stroke="black" points="2060,-265 1923.09,-247 2060,-229 2196.91,-247 2060,-265"/>
<text text-anchor="start" x="1962.64" y="-243.3" font-family="DejaVu Sans Mono" font-size="14.00">if l[i] &lt;= r[j]:</text>
</g>
<!-- 18&#45;&gt;22 -->
<g id="edge20" class="edge">
<title>18&#45;&gt;22</title>
<path fill="none" stroke="red" d="M1950.69,-315.08C1972.13,-301.92 2004.48,-282.07 2028.44,-267.37"/>
<polygon fill="red" stroke="red" points="2030.47,-270.23 2037.16,-262.01 2026.81,-264.26 2030.47,-270.23"/>
<text text-anchor="middle" x="2059" y="-284.8" font-family="DejaVu Sans Mono" font-size="14.00">(j != len(r))</text>
</g>
<!-- 20&#45;&gt;8 -->
<g id="edge12" class="edge">
<title>20&#45;&gt;8</title>
<path fill="none" stroke="black" d="M1884.12,-266.07C1893.96,-268.82 1904.21,-271.3 1914,-273 1931.21,-275.99 2058.97,-268.34 2071,-281 2134.9,-348.24 2032.34,-390.36 2005,-479 1996.75,-505.74 1993.03,-537.6 1991.35,-559.76"/>
<polygon fill="black" stroke="black" points="1987.86,-559.59 1990.69,-569.8 1994.84,-560.05 1987.86,-559.59"/>
</g>
<!-- 28 -->
<g id="node18" class="node">
<title>28</title>
<polygon fill="#e552ff" stroke="#e552ff" points="1880.5,-182 1793.5,-182 1793.5,-186 1781.5,-186 1781.5,-146 1880.5,-146 1880.5,-182"/>
<polyline fill="none" stroke="#e552ff" points="1781.5,-182 1793.5,-182 "/>
<text text-anchor="middle" x="1831" y="-160.3" font-family="DejaVu Sans Mono" font-size="14.00">arr.append</text>
</g>
<!-- 20&#45;&gt;28 -->
<g id="edge11" class="edge">
<title>20&#45;&gt;28</title>
<path fill="none" stroke="black" stroke-dasharray="5,2" d="M1831,-227.62C1831,-217.18 1831,-203.92 1831,-192.29"/>
<polygon fill="black" stroke="black" points="1834.5,-192.2 1831,-182.2 1827.5,-192.2 1834.5,-192.2"/>
<text text-anchor="middle" x="1852" y="-201.8" font-family="DejaVu Sans Mono" font-size="14.00">calls</text>
</g>
<!-- 23 -->
<g id="node20" class="node">
<title>23</title>
<polygon fill="#fffb81" stroke="black" points="2061.5,-183 1912.5,-183 1912.5,-145 2061.5,-145 2061.5,-183"/>
<text text-anchor="start" x="1920.5" y="-167.8" font-family="DejaVu Sans Mono" font-size="14.00">arr.append(l[i])</text>
<text text-anchor="start" x="1920.5" y="-152.8" font-family="DejaVu Sans Mono" font-size="14.00">i += 1</text>
</g>
<!-- 22&#45;&gt;23 -->
<g id="edge16" class="edge">
<title>22&#45;&gt;23</title>
<path fill="none" stroke="green" d="M2009.69,-235.53C1998.05,-230.65 1987.02,-223.49 1980,-213 1976.1,-207.17 1975.48,-200.05 1976.41,-193.1"/>
<polygon fill="green" stroke="green" points="1979.86,-193.73 1978.7,-183.2 1973.04,-192.16 1979.86,-193.73"/>
<text text-anchor="middle" x="2030" y="-201.8" font-family="DejaVu Sans Mono" font-size="14.00">l[i] &lt;= r[j]</text>
</g>
<!-- 25 -->
<g id="node22" class="node">
<title>25</title>
<polygon fill="#fffb81" stroke="black" points="2232.5,-183 2083.5,-183 2083.5,-145 2232.5,-145 2232.5,-183"/>
<text text-anchor="start" x="2091.5" y="-167.8" font-family="DejaVu Sans Mono" font-size="14.00">arr.append(r[j])</text>
<text text-anchor="start" x="2091.5" y="-152.8" font-family="DejaVu Sans Mono" font-size="14.00">j += 1</text>
</g>
<!-- 22&#45;&gt;25 -->
<g id="edge19" class="edge">
<title>22&#45;&gt;25</title>
<path fill="none" stroke="red" d="M2077.97,-231.14C2092.03,-219.53 2111.87,-203.13 2128.28,-189.56"/>
<polygon fill="red" stroke="red" points="2130.54,-192.23 2136.02,-183.17 2126.08,-186.84 2130.54,-192.23"/>
<text text-anchor="middle" x="2171" y="-201.8" font-family="DejaVu Sans Mono" font-size="14.00">(l[i] &gt; r[j])</text>
</g>
<!-- 23&#45;&gt;8 -->
<g id="edge15" class="edge">
<title>23&#45;&gt;8</title>
<path fill="none" stroke="black" d="M2043.86,-183.1C2054.14,-185.82 2064.82,-188.28 2075,-190 2089.92,-192.53 2200.62,-186.99 2211,-198 2233.92,-222.31 2219.43,-242.41 2206,-273 2178.31,-336.07 2146.28,-335.09 2101,-387 2066.13,-426.96 2050.52,-432.51 2025,-479 2017.26,-493.1 2005.17,-533.09 1997.42,-560.25"/>
<polygon fill="black" stroke="black" points="1994.03,-559.37 1994.68,-569.95 2000.77,-561.28 1994.03,-559.37"/>
</g>
<!-- 27 -->
<g id="node21" class="node">
<title>27</title>
<polygon fill="#e552ff" stroke="#e552ff" points="2036.5,-91 1949.5,-91 1949.5,-95 1937.5,-95 1937.5,-55 2036.5,-55 2036.5,-91"/>
<polyline fill="none" stroke="#e552ff" points="1937.5,-91 1949.5,-91 "/>
<text text-anchor="middle" x="1987" y="-69.3" font-family="DejaVu Sans Mono" font-size="14.00">arr.append</text>
</g>
<!-- 23&#45;&gt;27 -->
<g id="edge14" class="edge">
<title>23&#45;&gt;27</title>
<path fill="none" stroke="black" stroke-dasharray="5,2" d="M1987,-144.99C1987,-132.44 1987,-115.48 1987,-101.28"/>
<polygon fill="black" stroke="black" points="1990.5,-101.08 1987,-91.08 1983.5,-101.08 1990.5,-101.08"/>
<text text-anchor="middle" x="2008" y="-110.8" font-family="DejaVu Sans Mono" font-size="14.00">calls</text>
</g>
<!-- 25&#45;&gt;8 -->
<g id="edge18" class="edge">
<title>25&#45;&gt;8</title>
<path fill="none" stroke="black" d="M2205.66,-183.02C2211.36,-187.1 2216.42,-192.04 2220,-198 2237.16,-226.58 2228.75,-241.12 2219,-273 2189.71,-368.78 2150.12,-379.54 2077,-448 2061.34,-462.66 2052.47,-461.54 2040,-479 2025.61,-499.15 2030.31,-508.49 2020,-531 2015.45,-540.93 2009.94,-551.55 2004.88,-560.85"/>
<polygon fill="black" stroke="black" points="2001.8,-559.18 2000.03,-569.63 2007.93,-562.57 2001.8,-559.18"/>
</g>
<!-- 26 -->
<g id="node23" class="node">
<title>26</title>
<polygon fill="#e552ff" stroke="#e552ff" points="2207.5,-91 2120.5,-91 2120.5,-95 2108.5,-95 2108.5,-55 2207.5,-55 2207.5,-91"/>
<polyline fill="none" stroke="#e552ff" points="2108.5,-91 2120.5,-91 "/>
<text text-anchor="middle" x="2158" y="-69.3" font-family="DejaVu Sans Mono" font-size="14.00">arr.append</text>
</g>
<!-- 25&#45;&gt;26 -->
<g id="edge17" class="edge">
<title>25&#45;&gt;26</title>
<path fill="none" stroke="black" stroke-dasharray="5,2" d="M2158,-144.99C2158,-132.44 2158,-115.48 2158,-101.28"/>
<polygon fill="black" stroke="black" points="2161.5,-101.08 2158,-91.08 2154.5,-101.08 2161.5,-101.08"/>
<text text-anchor="middle" x="2179" y="-110.8" font-family="DejaVu Sans Mono" font-size="14.00">calls</text>
</g>
<!-- 33 -->
<g id="node25" class="node">
<title>33</title>
<polygon fill="#fffb81" stroke="black" points="1303.5,-705.5 1154.5,-705.5 1154.5,-652.5 1303.5,-652.5 1303.5,-705.5"/>
<text text-anchor="start" x="1162.5" y="-690.3" font-family="DejaVu Sans Mono" font-size="14.00">n = len(src) / 2</text>
<text text-anchor="start" x="1162.5" y="-675.3" font-family="DejaVu Sans Mono" font-size="14.00">l = src[0:n]</text>
<text text-anchor="start" x="1162.5" y="-660.3" font-family="DejaVu Sans Mono" font-size="14.00">r = src[n:]</text>
</g>
<!-- 34 -->
<g id="node26" class="node">
<title>34</title>
<polygon fill="#e552ff" stroke="#e552ff" points="1168,-606 1126,-606 1126,-610 1114,-610 1114,-570 1168,-570 1168,-606"/>
<polyline fill="none" stroke="#e552ff" points="1114,-606 1126,-606 "/>
<text text-anchor="middle" x="1141" y="-584.3" font-family="DejaVu Sans Mono" font-size="14.00">len</text>
</g>
<!-- 33&#45;&gt;34 -->
<g id="edge26" class="edge">
<title>33&#45;&gt;34</title>
<path fill="none" stroke="black" stroke-dasharray="5,2" d="M1203.55,-652.26C1191.44,-640.01 1177.04,-625.45 1165.11,-613.39"/>
<polygon fill="black" stroke="black" points="1167.57,-610.89 1158.05,-606.24 1162.59,-615.81 1167.57,-610.89"/>
<text text-anchor="middle" x="1208" y="-625.8" font-family="DejaVu Sans Mono" font-size="14.00">calls</text>
</g>
<!-- 35 -->
<g id="node27" class="node">
<title>35</title>
<polygon fill="#ff6752" stroke="black" points="1307,-606 1185.84,-588 1307,-570 1428.16,-588 1307,-606"/>
<text text-anchor="start" x="1221.66" y="-584.3" font-family="DejaVu Sans Mono" font-size="14.00">if len(l) &gt; 1:</text>
</g>
<!-- 33&#45;&gt;35 -->
<g id="edge39" class="edge">
<title>33&#45;&gt;35</title>
<path fill="none" stroke="black" d="M1251.56,-652.26C1262.78,-639.46 1276.22,-624.12 1287.06,-611.75"/>
<polygon fill="black" stroke="black" points="1289.8,-613.94 1293.76,-604.11 1284.53,-609.32 1289.8,-613.94"/>
</g>
<!-- 36 -->
<g id="node28" class="node">
<title>36</title>
<polygon fill="#e552ff" stroke="#e552ff" points="1168,-523 1126,-523 1126,-527 1114,-527 1114,-487 1168,-487 1168,-523"/>
<polyline fill="none" stroke="#e552ff" points="1114,-523 1126,-523 "/>
<text text-anchor="middle" x="1141" y="-501.3" font-family="DejaVu Sans Mono" font-size="14.00">len</text>
</g>
<!-- 35&#45;&gt;36 -->
<g id="edge27" class="edge">
<title>35&#45;&gt;36</title>
<path fill="none" stroke="black" stroke-dasharray="5,2" d="M1257.58,-577.34C1215.37,-568.9 1160.85,-557.47 1157,-554 1151.01,-548.61 1147.26,-540.91 1144.91,-533.26"/>
<polygon fill="black" stroke="black" points="1148.28,-532.33 1142.56,-523.42 1141.48,-533.96 1148.28,-532.33"/>
<text text-anchor="middle" x="1178" y="-542.8" font-family="DejaVu Sans Mono" font-size="14.00">calls</text>
</g>
<!-- 37 -->
<g id="node29" class="node">
<title>37</title>
<polygon fill="#fffb81" stroke="black" points="1528,-523 1330,-523 1330,-487 1528,-487 1528,-523"/>
<text text-anchor="start" x="1338" y="-501.3" font-family="DejaVu Sans Mono" font-size="14.00">l = self.merge_sort(l)</text>
</g>
<!-- 35&#45;&gt;37 -->
<g id="edge37" class="edge">
<title>35&#45;&gt;37</title>
<path fill="none" stroke="green" d="M1327.97,-573.08C1346.3,-560.91 1373.24,-543.02 1394.7,-528.77"/>
<polygon fill="green" stroke="green" points="1396.83,-531.56 1403.22,-523.12 1392.95,-525.73 1396.83,-531.56"/>
<text text-anchor="middle" x="1419.5" y="-542.8" font-family="DejaVu Sans Mono" font-size="14.00">len(l) &gt; 1</text>
</g>
<!-- 38 -->
<g id="node31" class="node">
<title>38</title>
<polygon fill="#ff6752" stroke="black" points="1227,-439.5 1105.84,-421.5 1227,-403.5 1348.16,-421.5 1227,-439.5"/>
<text text-anchor="start" x="1141.66" y="-417.8" font-family="DejaVu Sans Mono" font-size="14.00">if len(r) &gt; 1:</text>
</g>
<!-- 35&#45;&gt;38 -->
<g id="edge38" class="edge">
<title>35&#45;&gt;38</title>
<path fill="none" stroke="red" d="M1269.97,-575.26C1249.25,-566.58 1225.2,-552.47 1213,-531 1198.45,-505.4 1206.66,-471 1215.4,-447.86"/>
<polygon fill="red" stroke="red" points="1218.72,-448.98 1219.24,-438.39 1212.24,-446.34 1218.72,-448.98"/>
<text text-anchor="middle" x="1267" y="-501.3" font-family="DejaVu Sans Mono" font-size="14.00">(len(l) &lt;= 1)</text>
</g>
<!-- 39 -->
<g id="node30" class="node">
<title>39</title>
<polygon fill="#e552ff" stroke="#e552ff" points="1506,-439.5 1378,-439.5 1378,-443.5 1366,-443.5 1366,-403.5 1506,-403.5 1506,-439.5"/>
<polyline fill="none" stroke="#e552ff" points="1366,-439.5 1378,-439.5 "/>
<text text-anchor="middle" x="1436" y="-417.8" font-family="DejaVu Sans Mono" font-size="14.00">self.merge_sort</text>
</g>
<!-- 37&#45;&gt;39 -->
<g id="edge28" class="edge">
<title>37&#45;&gt;39</title>
<path fill="none" stroke="black" stroke-dasharray="5,2" d="M1430.48,-486.72C1431.4,-476.02 1432.6,-462.05 1433.65,-449.87"/>
<polygon fill="black" stroke="black" points="1437.15,-450.02 1434.52,-439.76 1430.17,-449.42 1437.15,-450.02"/>
<text text-anchor="middle" x="1453" y="-459.8" font-family="DejaVu Sans Mono" font-size="14.00">calls</text>
</g>
<!-- 37&#45;&gt;38 -->
<g id="edge36" class="edge">
<title>37&#45;&gt;38</title>
<path fill="none" stroke="black" d="M1386.65,-486.91C1351.55,-472.75 1301.97,-452.75 1267.41,-438.8"/>
<polygon fill="black" stroke="black" points="1268.67,-435.54 1258.08,-435.04 1266.05,-442.03 1268.67,-435.54"/>
</g>
<!-- 40 -->
<g id="node32" class="node">
<title>40</title>
<polygon fill="#e552ff" stroke="#e552ff" points="1168,-348 1126,-348 1126,-352 1114,-352 1114,-312 1168,-312 1168,-348"/>
<polyline fill="none" stroke="#e552ff" points="1114,-348 1126,-348 "/>
<text text-anchor="middle" x="1141" y="-326.3" font-family="DejaVu Sans Mono" font-size="14.00">len</text>
</g>
<!-- 38&#45;&gt;40 -->
<g id="edge29" class="edge">
<title>38&#45;&gt;40</title>
<path fill="none" stroke="black" stroke-dasharray="5,2" d="M1195.97,-408.11C1182.36,-401.31 1167.2,-391.65 1157,-379 1152.15,-372.98 1148.74,-365.43 1146.36,-358.11"/>
<polygon fill="black" stroke="black" points="1149.73,-357.15 1143.71,-348.44 1142.97,-359.01 1149.73,-357.15"/>
<text text-anchor="middle" x="1178" y="-367.8" font-family="DejaVu Sans Mono" font-size="14.00">calls</text>
</g>
<!-- 41 -->
<g id="node33" class="node">
<title>41</title>
<polygon fill="#fffb81" stroke="black" points="1528,-348 1330,-348 1330,-312 1528,-312 1528,-348"/>
<text text-anchor="start" x="1338" y="-326.3" font-family="DejaVu Sans Mono" font-size="14.00">r = self.merge_sort(r)</text>
</g>
<!-- 38&#45;&gt;41 -->
<g id="edge34" class="edge">
<title>38&#45;&gt;41</title>
<path fill="none" stroke="green" d="M1255.94,-407.68C1288.53,-393.24 1341.99,-369.55 1380.88,-352.32"/>
<polygon fill="green" stroke="green" points="1382.71,-355.34 1390.43,-348.09 1379.87,-348.94 1382.71,-355.34"/>
<text text-anchor="middle" x="1393.5" y="-367.8" font-family="DejaVu Sans Mono" font-size="14.00">len(r) &gt; 1</text>
</g>
<!-- 42 -->
<g id="node35" class="node">
<title>42</title>
<polygon fill="#fffb81" stroke="black" points="1321,-265 1123,-265 1123,-229 1321,-229 1321,-265"/>
<text text-anchor="start" x="1131" y="-243.3" font-family="DejaVu Sans Mono" font-size="14.00">src = self.merge(l, r)</text>
</g>
<!-- 38&#45;&gt;42 -->
<g id="edge35" class="edge">
<title>38&#45;&gt;42</title>
<path fill="none" stroke="red" d="M1222.39,-403.95C1219.03,-391.02 1214.77,-372.52 1213,-356 1210.53,-333.02 1211.16,-327.04 1213,-304 1213.75,-294.55 1215.22,-284.28 1216.74,-275.15"/>
<polygon fill="red" stroke="red" points="1220.23,-275.53 1218.53,-265.07 1213.34,-274.31 1220.23,-275.53"/>
<text text-anchor="middle" x="1267" y="-326.3" font-family="DejaVu Sans Mono" font-size="14.00">(len(r) &lt;= 1)</text>
</g>
<!-- 43 -->
<g id="node34" class="node">
<title>43</title>
<polygon fill="#e552ff" stroke="#e552ff" points="1499,-265 1371,-265 1371,-269 1359,-269 1359,-229 1499,-229 1499,-265"/>
<polyline fill="none" stroke="#e552ff" points="1359,-265 1371,-265 "/>
<text text-anchor="middle" x="1429" y="-243.3" font-family="DejaVu Sans Mono" font-size="14.00">self.merge_sort</text>
</g>
<!-- 41&#45;&gt;43 -->
<g id="edge30" class="edge">
<title>41&#45;&gt;43</title>
<path fill="none" stroke="black" stroke-dasharray="5,2" d="M1429,-311.82C1429,-301.19 1429,-287.31 1429,-275.2"/>
<polygon fill="black" stroke="black" points="1432.5,-275.15 1429,-265.15 1425.5,-275.15 1432.5,-275.15"/>
<text text-anchor="middle" x="1450" y="-284.8" font-family="DejaVu Sans Mono" font-size="14.00">calls</text>
</g>
<!-- 41&#45;&gt;42 -->
<g id="edge33" class="edge">
<title>41&#45;&gt;42</title>
<path fill="none" stroke="black" d="M1385.35,-311.92C1353.15,-299.32 1309.17,-282.11 1274.96,-268.72"/>
<polygon fill="black" stroke="black" points="1276.17,-265.44 1265.59,-265.06 1273.62,-271.96 1276.17,-265.44"/>
</g>
<!-- 44 -->
<g id="node36" class="node">
<title>44</title>
<polygon fill="#e552ff" stroke="#e552ff" points="1220.5,-182 1133.5,-182 1133.5,-186 1121.5,-186 1121.5,-146 1220.5,-146 1220.5,-182"/>
<polyline fill="none" stroke="#e552ff" points="1121.5,-182 1133.5,-182 "/>
<text text-anchor="middle" x="1171" y="-160.3" font-family="DejaVu Sans Mono" font-size="14.00">self.merge</text>
</g>
<!-- 42&#45;&gt;44 -->
<g id="edge31" class="edge">
<title>42&#45;&gt;44</title>
<path fill="none" stroke="black" stroke-dasharray="5,2" d="M1203.68,-228.83C1199.16,-224 1194.59,-218.54 1191,-213 1186.75,-206.44 1183.09,-198.82 1180.1,-191.61"/>
<polygon fill="black" stroke="black" points="1183.32,-190.24 1176.45,-182.18 1176.79,-192.76 1183.32,-190.24"/>
<text text-anchor="middle" x="1212" y="-201.8" font-family="DejaVu Sans Mono" font-size="14.00">calls</text>
</g>
<!-- 45 -->
<g id="node37" class="node">
<title>45</title>
<polygon fill="#98fb98" stroke="black" points="1427.18,-182 1277.36,-182 1238.82,-146 1388.64,-146 1427.18,-182"/>
<text text-anchor="start" x="1271" y="-160.3" font-family="DejaVu Sans Mono" font-size="14.00">return src</text>
</g>
<!-- 42&#45;&gt;45 -->
<g id="edge32" class="edge">
<title>42&#45;&gt;45</title>
<path fill="none" stroke="black" d="M1245.54,-228.82C1261.73,-217.01 1283.42,-201.18 1301.15,-188.24"/>
<polygon fill="black" stroke="black" points="1303.48,-190.88 1309.49,-182.15 1299.35,-185.22 1303.48,-190.88"/>
</g>
<!-- 49 -->
<g id="node38" class="node">
<title>49</title>
<polygon fill="#fffb81" stroke="black" points="823,-697 765,-697 765,-661 823,-661 823,-697"/>
<text text-anchor="start" x="773" y="-675.3" font-family="DejaVu Sans Mono" font-size="14.00">j = 1</text>
</g>
<!-- 50 -->
<g id="node39" class="node">
<title>50</title>
<polygon fill="#ffbe52" stroke="black" points="980.24,-588 887.12,-606 700.88,-606 607.76,-588 700.88,-570 887.12,-570 980.24,-588"/>
<text text-anchor="start" x="658.82" y="-584.3" font-family="DejaVu Sans Mono" font-size="14.00">for j in range(1, len(src)):</text>
</g>
<!-- 49&#45;&gt;50 -->
<g id="edge48" class="edge">
<title>49&#45;&gt;50</title>
<path fill="none" stroke="black" d="M794,-660.84C794,-648.28 794,-630.98 794,-616.5"/>
<polygon fill="black" stroke="black" points="797.5,-616.11 794,-606.11 790.5,-616.11 797.5,-616.11"/>
</g>
<!-- 51 -->
<g id="node40" class="node">
<title>51</title>
<polygon fill="#e552ff" stroke="#e552ff" points="522,-523 476,-523 476,-527 464,-527 464,-487 522,-487 522,-523"/>
<polyline fill="none" stroke="#e552ff" points="464,-523 476,-523 "/>
<text text-anchor="middle" x="493" y="-501.3" font-family="DejaVu Sans Mono" font-size="14.00">range</text>
</g>
<!-- 50&#45;&gt;51 -->
<g id="edge40" class="edge">
<title>50&#45;&gt;51</title>
<path fill="none" stroke="black" stroke-dasharray="5,2" d="M678.36,-574.27C629.76,-566.05 573.59,-552.66 526,-531 524.43,-530.28 522.86,-529.48 521.3,-528.61"/>
<polygon fill="black" stroke="black" points="523.01,-525.55 512.7,-523.11 519.24,-531.45 523.01,-525.55"/>
<text text-anchor="middle" x="602" y="-542.8" font-family="DejaVu Sans Mono" font-size="14.00">calls</text>
</g>
<!-- 53 -->
<g id="node42" class="node">
<title>53</title>
<polygon fill="#fffb81" stroke="black" points="1082,-524 966,-524 966,-486 1082,-486 1082,-524"/>
<text text-anchor="start" x="974" y="-508.8" font-family="DejaVu Sans Mono" font-size="14.00">i = j &#45; 1</text>
<text text-anchor="start" x="974" y="-493.8" font-family="DejaVu Sans Mono" font-size="14.00">key = src[j]</text>
</g>
<!-- 50&#45;&gt;53 -->
<g id="edge43" class="edge">
<title>50&#45;&gt;53</title>
<path fill="none" stroke="green" d="M802.44,-569.68C808.71,-558.85 818.37,-545.72 831,-539 855.77,-525.83 929.56,-536.86 957,-531 961.76,-529.98 966.63,-528.69 971.47,-527.24"/>
<polygon fill="green" stroke="green" points="972.87,-530.46 981.31,-524.05 970.71,-523.8 972.87,-530.46"/>
<text text-anchor="middle" x="905.5" y="-542.8" font-family="DejaVu Sans Mono" font-size="14.00">range(1, len(src))</text>
</g>
<!-- 54 -->
<g id="node43" class="node">
<title>54</title>
<polygon fill="#ffbe52" stroke="black" points="948.27,-505 846.13,-523 641.87,-523 539.73,-505 641.87,-487 846.13,-487 948.27,-505"/>
<text text-anchor="start" x="594.96" y="-501.3" font-family="DejaVu Sans Mono" font-size="14.00">while i &gt;= 0 and src[i] &gt;= key:</text>
</g>
<!-- 50&#45;&gt;54 -->
<g id="edge47" class="edge">
<title>50&#45;&gt;54</title>
<path fill="none" stroke="green" d="M783.4,-569.82C776.57,-558.76 767.57,-544.18 759.89,-531.75"/>
<polygon fill="green" stroke="green" points="762.82,-529.82 754.59,-523.15 756.86,-533.5 762.82,-529.82"/>
</g>
<!-- 52 -->
<g id="node41" class="node">
<title>52</title>
<polygon fill="#e552ff" stroke="#e552ff" points="520,-439.5 478,-439.5 478,-443.5 466,-443.5 466,-403.5 520,-403.5 520,-439.5"/>
<polyline fill="none" stroke="#e552ff" points="466,-439.5 478,-439.5 "/>
<text text-anchor="middle" x="493" y="-417.8" font-family="DejaVu Sans Mono" font-size="14.00">len</text>
</g>
<!-- 51&#45;&gt;52 -->
<g id="edge41" class="edge">
<title>51&#45;&gt;52</title>
<path fill="none" stroke="black" d="M493,-486.72C493,-476.02 493,-462.05 493,-449.87"/>
<polygon fill="black" stroke="black" points="496.5,-449.76 493,-439.76 489.5,-449.76 496.5,-449.76"/>
</g>
<!-- 53&#45;&gt;50 -->
<g id="edge42" class="edge">
<title>53&#45;&gt;50</title>
<path fill="none" stroke="black" d="M1013.34,-524.31C1006.33,-534.68 996.21,-546.94 984,-554 968.59,-562.9 951.39,-569.53 933.8,-574.45"/>
<polygon fill="black" stroke="black" points="932.8,-571.1 924,-577.01 934.56,-577.87 932.8,-571.1"/>
</g>
<!-- 55 -->
<g id="node44" class="node">
<title>55</title>
<polygon fill="#fffb81" stroke="black" points="1013.5,-448 840.5,-448 840.5,-395 1013.5,-395 1013.5,-448"/>
<text text-anchor="start" x="848.5" y="-432.8" font-family="DejaVu Sans Mono" font-size="14.00">src[i + 1] = src[i]</text>
<text text-anchor="start" x="848.5" y="-417.8" font-family="DejaVu Sans Mono" font-size="14.00">i = i &#45; 1</text>
<text text-anchor="start" x="848.5" y="-402.8" font-family="DejaVu Sans Mono" font-size="14.00">src[i + 1] = key</text>
</g>
<!-- 54&#45;&gt;55 -->
<g id="edge45" class="edge">
<title>54&#45;&gt;55</title>
<path fill="none" stroke="green" d="M802.47,-486.85C814.54,-482.38 826.94,-477.09 838,-471 847.43,-465.81 847.87,-461.69 857,-456 858.49,-455.07 860.02,-454.15 861.56,-453.23"/>
<polygon fill="green" stroke="green" points="863.64,-456.08 870.62,-448.11 860.19,-449.99 863.64,-456.08"/>
<text text-anchor="middle" x="956.5" y="-459.8" font-family="DejaVu Sans Mono" font-size="14.00">i &gt;= 0 and src[i] &gt;= key</text>
</g>
<!-- 56 -->
<g id="node45" class="node">
<title>56</title>
<polygon fill="#98fb98" stroke="black" points="726.18,-439.5 576.36,-439.5 537.82,-403.5 687.64,-403.5 726.18,-439.5"/>
<text text-anchor="start" x="570" y="-417.8" font-family="DejaVu Sans Mono" font-size="14.00">return src</text>
</g>
<!-- 54&#45;&gt;56 -->
<g id="edge46" class="edge">
<title>54&#45;&gt;56</title>
<path fill="none" stroke="red" d="M619.26,-490.95C597.88,-486.2 580.22,-479.74 573,-471 565.2,-461.55 570.72,-452.6 580.97,-445.02"/>
<polygon fill="red" stroke="red" points="583.04,-447.85 589.58,-439.51 579.27,-441.95 583.04,-447.85"/>
<text text-anchor="middle" x="705.5" y="-459.8" font-family="DejaVu Sans Mono" font-size="14.00">(not (i &gt;= 0 and src[i] &gt;= key))</text>
</g>
<!-- 55&#45;&gt;54 -->
<g id="edge44" class="edge">
<title>55&#45;&gt;54</title>
<path fill="none" stroke="black" d="M1013.57,-430.12C1050.39,-436.65 1080.62,-448.72 1060,-471 1052.2,-479.43 968.42,-477.89 957,-479 928.99,-481.73 898.95,-485.03 870.52,-488.32"/>
<polygon fill="black" stroke="black" points="870.07,-484.85 860.54,-489.48 870.88,-491.8 870.07,-484.85"/>
</g>
<!-- input -->
<g id="node46" class="node">
<title>input</title>
<polygon fill="#afeeee" stroke="black" points="2634.04,-606 2546.48,-606 2523.96,-570 2611.52,-570 2634.04,-606"/>
<text text-anchor="middle" x="2579" y="-584.3" font-family="DejaVu Sans Mono" font-size="14.00">input</text>
</g>
<!-- call -->
<g id="node51" class="node">
<title>call</title>
<polygon fill="#e552ff" stroke="black" points="2606,-523 2564,-523 2564,-527 2552,-527 2552,-487 2606,-487 2606,-523"/>
<polyline fill="none" stroke="black" points="2552,-523 2564,-523 "/>
<text text-anchor="middle" x="2579" y="-501.3" font-family="DejaVu Sans Mono" font-size="14.00">call</text>
</g>
<!-- input&#45;&gt;call -->
<!-- default -->
<g id="node47" class="node">
<title>default</title>
<polygon fill="#fffb81" stroke="black" points="2480,-523 2406,-523 2406,-487 2480,-487 2480,-523"/>
<text text-anchor="middle" x="2443" y="-501.3" font-family="DejaVu Sans Mono" font-size="14.00">default</text>
</g>
<!-- if -->
<g id="node48" class="node">
<title>if</title>
<polygon fill="#ff6752" stroke="black" points="2579,-697 2548.83,-679 2579,-661 2609.17,-679 2579,-697"/>
<text text-anchor="middle" x="2579" y="-675.3" font-family="DejaVu Sans Mono" font-size="14.00">if</text>
</g>
<!-- if&#45;&gt;input -->
<!-- for -->
<g id="node49" class="node">
<title>for</title>
<polygon fill="#ffbe52" stroke="black" points="2529.54,-679 2514.27,-697 2483.73,-697 2468.46,-679 2483.73,-661 2514.27,-661 2529.54,-679"/>
<text text-anchor="middle" x="2499" y="-675.3" font-family="DejaVu Sans Mono" font-size="14.00">for</text>
</g>
<!-- return -->
<g id="node52" class="node">
<title>return</title>
<polygon fill="#98fb98" stroke="black" points="2505.79,-606 2405.91,-606 2380.21,-570 2480.09,-570 2505.79,-606"/>
<text text-anchor="middle" x="2443" y="-584.3" font-family="DejaVu Sans Mono" font-size="14.00">return</text>
</g>
<!-- for&#45;&gt;return -->
<!-- while -->
<g id="node50" class="node">
<title>while</title>
<polygon fill="#ffbe52" stroke="black" points="2450.56,-679 2428.78,-697 2385.22,-697 2363.44,-679 2385.22,-661 2428.78,-661 2450.56,-679"/>
<text text-anchor="middle" x="2407" y="-675.3" font-family="DejaVu Sans Mono" font-size="14.00">while</text>
</g>
<!-- return&#45;&gt;default -->
<!-- try -->
<g id="node53" class="node">
<title>try</title>
<polygon fill="orange" stroke="black" points="2308,-697 2270.13,-679 2308,-661 2345.87,-679 2308,-697"/>
<polyline fill="none" stroke="black" points="2280.97,-684.15 2280.97,-673.85 "/>
<polyline fill="none" stroke="black" points="2297.16,-666.15 2318.84,-666.15 "/>
<polyline fill="none" stroke="black" points="2335.03,-673.85 2335.03,-684.15 "/>
<polyline fill="none" stroke="black" points="2318.84,-691.85 2297.16,-691.85 "/>
<text text-anchor="middle" x="2308" y="-675.3" font-family="DejaVu Sans Mono" font-size="14.00">try</text>
</g>
<!-- raise -->
<g id="node54" class="node">
<title>raise</title>
<polygon fill="#98fb98" stroke="black" points="2362.69,-593.56 2316,-606 2269.31,-593.56 2269.35,-573.44 2362.65,-573.44 2362.69,-593.56"/>
<text text-anchor="middle" x="2316" y="-584.3" font-family="DejaVu Sans Mono" font-size="14.00">raise</text>
</g>
<!-- try&#45;&gt;raise -->
</g>
</svg>
